<?xml version="1.0" encoding="UTF-8"?>
<!DOCTYPE svg PUBLIC "-//W3C//DTD SVG 1.1//EN" "http://www.w3.org/Graphics/SVG/1.1/DTD/svg11.dtd">
<svg xmlns="http://www.w3.org/2000/svg" version="1.1" width="1080px" height="339px" style="shape-rendering:geometricPrecision; text-rendering:geometricPrecision; image-rendering:optimizeQuality; fill-rule:evenodd; clip-rule:evenodd" xmlns:xlink="http://www.w3.org/1999/xlink">
<g><path style="opacity:0.991" fill="#333333" d="M 78.5,80.5 C 146.834,80.3333 215.167,80.5 283.5,81C 308.787,83.9693 326.287,97.136 336,120.5C 337.408,124.057 338.408,127.724 339,131.5C 340.46,178.474 340.96,225.474 340.5,272.5C 252.166,272.667 163.833,272.5 75.5,272C 52.0115,266.844 38.5115,252.344 35,228.5C 34.3333,194.167 34.3333,159.833 35,125.5C 39.222,100.446 53.722,85.4463 78.5,80.5 Z"/></g>
<g><path style="opacity:0.975" fill="#323332" d="M 692.5,80.5 C 701.167,80.5 709.833,80.5 718.5,80.5C 718.5,120.167 718.5,159.833 718.5,199.5C 709.833,199.5 701.167,199.5 692.5,199.5C 692.663,197.143 692.497,194.81 692,192.5C 686.513,199.157 679.346,202.49 670.5,202.5C 646.842,200.007 634.175,186.84 632.5,163C 634.255,135.977 648.588,122.977 675.5,124C 681.9,125.116 687.4,127.95 692,132.5C 692.5,115.17 692.667,97.8365 692.5,80.5 Z M 674.5,146.5 C 687.826,147.322 693.66,154.322 692,167.5C 686.792,178.46 678.625,181.293 667.5,176C 657.968,166.695 658.301,157.695 668.5,149C 670.611,148.155 672.611,147.322 674.5,146.5 Z"/></g>
<g><path style="opacity:0.965" fill="#323332" d="M 394.5,123.5 C 404.838,122.374 414.005,125.04 422,131.5C 422.495,129.527 422.662,127.527 422.5,125.5C 431.5,125.5 440.5,125.5 449.5,125.5C 449.5,150.167 449.5,174.833 449.5,199.5C 440.5,199.5 431.5,199.5 422.5,199.5C 422.662,197.473 422.495,195.473 422,193.5C 411.889,202.382 400.389,204.549 387.5,200C 371.65,192.628 363.65,180.128 363.5,162.5C 364.599,141.89 374.932,128.89 394.5,123.5 Z M 405.5,146.5 C 420.819,148.637 425.985,156.97 421,171.5C 413.528,179.614 405.195,180.614 396,174.5C 387.944,161.167 391.11,151.833 405.5,146.5 Z"/></g>
<g><path style="opacity:0.948" fill="#323332" d="M 497.5,123.5 C 505.874,122.757 513.874,124.091 521.5,127.5C 522.833,135.167 522.833,142.833 521.5,150.5C 511.546,143.586 502.379,144.586 494,153.5C 488.381,167.93 493.047,176.93 508,180.5C 512.858,179.822 517.358,178.156 521.5,175.5C 522.497,183.138 522.831,190.804 522.5,198.5C 508.132,204.289 494.132,203.455 480.5,196C 462.919,181.84 458.753,164.34 468,143.5C 474.759,132.232 484.593,125.565 497.5,123.5 Z"/></g>
<g><path style="opacity:0.96" fill="#323332" d="M 564.5,123.5 C 574.71,122.401 583.71,125.068 591.5,131.5C 592.466,129.604 592.799,127.604 592.5,125.5C 601.5,125.5 610.5,125.5 619.5,125.5C 619.5,150.167 619.5,174.833 619.5,199.5C 610.5,199.5 601.5,199.5 592.5,199.5C 592.662,197.473 592.495,195.473 592,193.5C 577.663,204.953 562.83,205.453 547.5,195C 535.235,183.8 530.735,169.967 534,153.5C 538.129,137.203 548.296,127.203 564.5,123.5 Z M 574.5,146.5 C 585.329,146.829 591.662,152.329 593.5,163C 589.921,177.456 581.254,181.79 567.5,176C 557.908,166.678 558.241,157.678 568.5,149C 570.723,148.434 572.723,147.6 574.5,146.5 Z"/></g>
<g><path style="opacity:0.955" fill="#323332" d="M 763.5,123.5 C 796.74,119.739 813.406,134.406 813.5,167.5C 795.5,167.5 777.5,167.5 759.5,167.5C 760.665,180.751 767.665,185.584 780.5,182C 783.32,181.264 785.32,179.598 786.5,177C 795.16,176.5 803.827,176.334 812.5,176.5C 808.672,191.487 799.006,199.987 783.5,202C 765.687,205.015 750.854,199.848 739,186.5C 730.158,169.967 730.491,153.634 740,137.5C 746.303,130.105 754.137,125.438 763.5,123.5 Z M 772.5,140.5 C 779.974,140.737 785.307,144.237 788.5,151C 779.167,151.667 769.833,151.667 760.5,151C 762.849,145.477 766.849,141.977 772.5,140.5 Z"/></g>
<g><path style="opacity:0.96" fill="#323332" d="M 872.5,124.5 C 884.875,123.338 894.708,127.671 902,137.5C 909.549,127.148 919.715,122.981 932.5,125C 945.667,128.19 952.167,136.69 952,150.5C 952.5,166.83 952.667,183.163 952.5,199.5C 943.5,199.5 934.5,199.5 925.5,199.5C 925.901,183.79 925.401,168.123 924,152.5C 918.917,144.147 912.917,143.48 906,150.5C 905.138,152.087 904.471,153.754 904,155.5C 903.5,170.163 903.333,184.83 903.5,199.5C 894.5,199.5 885.5,199.5 876.5,199.5C 876.92,183.784 876.42,168.117 875,152.5C 871.831,145.518 866.664,143.684 859.5,147C 856.819,149.194 855.319,152.027 855,155.5C 854.5,170.163 854.333,184.83 854.5,199.5C 845.5,199.5 836.5,199.5 827.5,199.5C 827.5,174.833 827.5,150.167 827.5,125.5C 836.5,125.5 845.5,125.5 854.5,125.5C 854.336,128.187 854.503,130.854 855,133.5C 860.074,128.875 865.907,125.875 872.5,124.5 Z"/></g>
<g><path style="opacity:0.953" fill="#323332" d="M 957.5,125.5 C 967.855,125.168 978.188,125.501 988.5,126.5C 994.667,138.167 1000.83,149.833 1007,161.5C 1013.17,149.833 1019.33,138.167 1025.5,126.5C 1035.83,125.167 1046.17,125.167 1056.5,126.5C 1036.96,163.08 1017.29,199.58 997.5,236C 987.483,236.832 977.483,236.666 967.5,235.5C 975.833,220.167 984.167,204.833 992.5,189.5C 980.281,168.39 968.614,147.057 957.5,125.5 Z"/></g>
<g><path style="opacity:1" fill="#fafafa" d="M 222.5,216.5 C 222.5,189.5 222.5,162.5 222.5,135.5C 231.833,135.5 241.167,135.5 250.5,135.5C 250.183,138.572 250.516,141.572 251.5,144.5C 252.107,144.376 252.44,144.043 252.5,143.5C 258.679,136.099 266.679,132.766 276.5,133.5C 290.083,132.869 299.917,138.536 306,150.5C 306.92,153.101 307.587,155.768 308,158.5C 308.5,177.83 308.667,197.164 308.5,216.5C 298.5,216.5 288.5,216.5 278.5,216.5C 278.667,199.163 278.5,181.83 278,164.5C 275.625,158.806 271.291,156.139 265,156.5C 258.599,156.532 254.266,159.532 252,165.5C 251.5,182.497 251.333,199.497 251.5,216.5C 241.833,216.5 232.167,216.5 222.5,216.5 Z"/></g>
<g><path style="opacity:1" fill="#a1a1a1" d="M 65.5,135.5 C 74.9856,134.506 84.6522,134.173 94.5,134.5C 94.19,137.713 94.5233,140.713 95.5,143.5C 95.44,144.043 95.1067,144.376 94.5,144.5C 93.5159,141.572 93.1826,138.572 93.5,135.5C 84.1667,135.5 74.8333,135.5 65.5,135.5 Z"/></g>
<g><path style="opacity:1" fill="#fdfdfd" d="M 148.5,215.5 C 139.167,215.5 129.833,215.5 120.5,215.5C 120.829,201.656 120.496,187.99 119.5,174.5C 120.446,168.011 118.78,162.344 114.5,157.5C 100.624,153.351 93.9575,158.685 94.5,173.5C 93.5042,187.323 93.1709,201.323 93.5,215.5C 84.1667,215.5 74.8333,215.5 65.5,215.5C 65.5,188.833 65.5,162.167 65.5,135.5C 74.8333,135.5 84.1667,135.5 93.5,135.5C 93.1826,138.572 93.5159,141.572 94.5,144.5C 95.1067,144.376 95.44,144.043 95.5,143.5C 108.264,132.655 122.264,130.822 137.5,138C 141.667,140.833 145.167,144.333 148,148.5C 156.1,136.703 167.266,131.869 181.5,134C 192.561,136.061 199.394,142.561 202,153.5C 202.5,174.497 202.667,195.497 202.5,216.5C 192.833,216.5 183.167,216.5 173.5,216.5C 173.667,199.163 173.5,181.83 173,164.5C 169.32,156.826 163.486,154.659 155.5,158C 152.131,160.365 149.964,163.532 149,167.5C 148.5,183.497 148.333,199.497 148.5,215.5 Z"/></g>
<g><path style="opacity:1" fill="#838383" d="M 252.5,143.5 C 252.44,144.043 252.107,144.376 251.5,144.5C 250.516,141.572 250.183,138.572 250.5,135.5C 241.167,135.5 231.833,135.5 222.5,135.5C 222.5,162.5 222.5,189.5 222.5,216.5C 221.502,189.338 221.169,162.005 221.5,134.5C 231.5,134.5 241.5,134.5 251.5,134.5C 251.19,137.713 251.523,140.713 252.5,143.5 Z"/></g>
<g><path style="opacity:1" fill="#cbcbcb" d="M 94.5,173.5 C 94.5,187.833 94.5,202.167 94.5,216.5C 84.6522,216.827 74.9856,216.494 65.5,215.5C 74.8333,215.5 84.1667,215.5 93.5,215.5C 93.1709,201.323 93.5042,187.323 94.5,173.5 Z"/></g>
<g><path style="opacity:1" fill="#cbcbcb" d="M 119.5,174.5 C 120.496,187.99 120.829,201.656 120.5,215.5C 129.833,215.5 139.167,215.5 148.5,215.5C 139.014,216.494 129.348,216.827 119.5,216.5C 119.5,202.5 119.5,188.5 119.5,174.5 Z"/></g>
<g><path style="opacity:0.989" fill="#f4901e" d="M 365.5,215.5 C 562.167,215.5 758.833,215.5 955.5,215.5C 954.209,246.291 938.542,265.124 908.5,272C 727.5,272.5 546.5,272.667 365.5,272.5C 365.5,253.5 365.5,234.5 365.5,215.5 Z"/></g>
<g><path style="opacity:1" fill="#fff7f0" d="M 387.5,227.5 C 387.176,231.555 387.509,235.555 388.5,239.5C 389.107,239.376 389.44,239.043 389.5,238.5C 395.364,236.955 398.698,239.121 399.5,245C 399.516,249.813 397.183,252.647 392.5,253.5C 389.885,252.731 387.219,252.397 384.5,252.5C 384.5,244.167 384.5,235.833 384.5,227.5C 385.5,227.5 386.5,227.5 387.5,227.5 Z"/></g>
<g><path style="opacity:1" fill="#f9c58a" d="M 387.5,227.5 C 388.167,231.167 388.833,234.833 389.5,238.5C 389.44,239.043 389.107,239.376 388.5,239.5C 387.509,235.555 387.176,231.555 387.5,227.5 Z"/></g>
<g><path style="opacity:1" fill="#fff4ea" d="M 494.5,229.5 C 499.684,228.727 504.017,230.227 507.5,234C 506.975,234.692 506.308,235.192 505.5,235.5C 494.626,230.022 489.792,233.356 491,245.5C 494.42,249.753 498.587,250.587 503.5,248C 504.337,246.989 504.67,245.822 504.5,244.5C 502.833,244.5 501.167,244.5 499.5,244.5C 499.5,243.167 499.5,241.833 499.5,240.5C 502.5,240.5 505.5,240.5 508.5,240.5C 508.012,251.161 502.679,254.994 492.5,252C 484.06,243.69 484.726,236.19 494.5,229.5 Z"/></g>
<g><path style="opacity:1" fill="#fff8f2" d="M 431.5,229.5 C 433.5,229.5 435.5,229.5 437.5,229.5C 438.508,233.692 440.008,237.692 442,241.5C 443.136,237.757 444.47,234.09 446,230.5C 448.041,229.577 450.208,229.244 452.5,229.5C 453.609,237.152 454.609,244.819 455.5,252.5C 453.533,252.739 451.699,252.406 450,251.5C 449.226,247.853 448.559,244.186 448,240.5C 446.481,244.928 444.314,248.928 441.5,252.5C 439.06,248.711 436.894,244.711 435,240.5C 434.499,244.51 433.999,248.51 433.5,252.5C 431.5,252.5 429.5,252.5 427.5,252.5C 428.325,244.711 429.659,237.045 431.5,229.5 Z"/></g>
<g><path style="opacity:1" fill="#fffaf5" d="M 475.5,242.5 C 475.56,243.043 475.893,243.376 476.5,243.5C 477.492,239.217 477.826,234.884 477.5,230.5C 479.167,230.5 480.833,230.5 482.5,230.5C 482.5,237.833 482.5,245.167 482.5,252.5C 480.473,252.662 478.473,252.495 476.5,252C 473,247.833 469.5,243.667 466,239.5C 465.501,243.821 465.334,248.154 465.5,252.5C 463.5,252.5 461.5,252.5 459.5,252.5C 459.5,245.167 459.5,237.833 459.5,230.5C 461.857,230.337 464.19,230.503 466.5,231C 469.715,234.709 472.715,238.542 475.5,242.5 Z"/></g>
<g><path style="opacity:1" fill="#fcdbb6" d="M 482.5,230.5 C 480.833,230.5 479.167,230.5 477.5,230.5C 477.826,234.884 477.492,239.217 476.5,243.5C 475.893,243.376 475.56,243.043 475.5,242.5C 476.485,238.366 476.818,234.032 476.5,229.5C 478.735,229.205 480.735,229.539 482.5,230.5 Z"/></g>
<g><path style="opacity:1" fill="#fff6ed" d="M 400.5,239.5 C 401.601,238.402 402.934,238.235 404.5,239C 405.874,241.583 407.374,244.083 409,246.5C 409.725,244.051 410.725,241.717 412,239.5C 413.388,238.446 414.888,238.28 416.5,239C 413.539,244.422 410.706,249.922 408,255.5C 406.949,257.627 405.449,259.293 403.5,260.5C 402.833,260.333 402.167,260.167 401.5,260C 403.43,256.806 405.097,253.473 406.5,250C 405.112,246.046 403.112,242.546 400.5,239.5 Z"/></g>
<g><path style="opacity:1" fill="#fef3e7" d="M 512.5,238.5 C 515.85,238.335 519.183,238.502 522.5,239C 521.088,240.791 519.255,241.958 517,242.5C 516.502,245.817 516.335,249.15 516.5,252.5C 515.167,252.5 513.833,252.5 512.5,252.5C 512.5,247.833 512.5,243.167 512.5,238.5 Z"/></g>
<g><path style="opacity:1" fill="#fff3e8" d="M 526.5,238.5 C 530.257,238.071 533.757,238.737 537,240.5C 540.202,248.952 537.368,253.119 528.5,253C 523.776,250.565 522.276,246.731 524,241.5C 525.045,240.627 525.878,239.627 526.5,238.5 Z"/></g>
<g><path style="opacity:1" fill="#fff2e5" d="M 541.5,238.5 C 542.833,238.5 544.167,238.5 545.5,238.5C 545.335,242.182 545.501,245.848 546,249.5C 547.333,250.833 548.667,250.833 550,249.5C 550.499,245.848 550.665,242.182 550.5,238.5C 551.833,238.5 553.167,238.5 554.5,238.5C 554.666,242.514 554.499,246.514 554,250.5C 550.254,254.393 546.588,254.393 543,250.5C 541.734,246.605 541.234,242.605 541.5,238.5 Z"/></g>
<g><path style="opacity:1" fill="#fff7f0" d="M 563.5,252.5 C 563.44,251.957 563.107,251.624 562.5,251.5C 561.516,254.428 561.183,257.428 561.5,260.5C 560.5,260.5 559.5,260.5 558.5,260.5C 558.5,253.167 558.5,245.833 558.5,238.5C 562.514,238.334 566.514,238.501 570.5,239C 575.373,245.621 574.04,250.454 566.5,253.5C 565.416,253.315 564.416,252.982 563.5,252.5 Z"/></g>
<g><path style="opacity:1" fill="#f5962d" d="M 389.5,241.5 C 395.067,240.753 396.9,243.087 395,248.5C 392.321,251.172 389.988,250.838 388,247.5C 387.252,245.16 387.752,243.16 389.5,241.5 Z"/></g>
<g><path style="opacity:1" fill="#f49429" d="M 528.5,241.5 C 534.067,240.753 535.9,243.087 534,248.5C 531.16,251.371 528.826,251.037 527,247.5C 526.252,245.16 526.752,243.16 528.5,241.5 Z"/></g>
<g><path style="opacity:1" fill="#f5962d" d="M 563.5,241.5 C 569.067,240.753 570.9,243.087 569,248.5C 566.321,251.172 563.988,250.838 562,247.5C 561.252,245.16 561.752,243.16 563.5,241.5 Z"/></g>
<g><path style="opacity:1" fill="#fef1e4" d="M 577.5,249.5 C 578.833,249.5 580.167,249.5 581.5,249.5C 581.778,251.346 581.111,252.68 579.5,253.5C 577.889,252.68 577.222,251.346 577.5,249.5 Z"/></g>
<g><path style="opacity:1" fill="#fac890" d="M 563.5,252.5 C 562.833,255.167 562.167,257.833 561.5,260.5C 561.183,257.428 561.516,254.428 562.5,251.5C 563.107,251.624 563.44,251.957 563.5,252.5 Z"/></g>
</svg>
